<svg width="28" height="28" viewBox="0 0 28 28" fill="none" xmlns="http://www.w3.org/2000/svg">
<path d="M14 12.8333C16.9167 12.8333 19.3958 12.3764 21.4375 11.4625C23.4792 10.5486 24.5 9.45 24.5 8.16667C24.5 6.88333 23.4792 5.78472 21.4375 4.87083C19.3958 3.95694 16.9167 3.5 14 3.5C11.0833 3.5 8.60417 3.95694 6.5625 4.87083C4.52083 5.78472 3.5 6.88333 3.5 8.16667C3.5 9.45 4.52083 10.5486 6.5625 11.4625C8.60417 12.3764 11.0833 12.8333 14 12.8333ZM14 15.75C14.7972 15.75 15.7939 15.6672 16.9902 15.5015C18.1864 15.3358 19.3383 15.0687 20.4458 14.7C21.5542 14.3306 22.5069 13.8495 23.3042 13.2568C24.1014 12.6642 24.5 11.9397 24.5 11.0833V14C24.5 14.8556 24.1014 15.5801 23.3042 16.1735C22.5069 16.7669 21.5542 17.248 20.4458 17.6167C19.3375 17.9861 18.1856 18.2537 16.9902 18.4193C15.7947 18.585 14.798 18.6674 14 18.6667C13.2028 18.6667 12.2064 18.5838 11.011 18.4182C9.81556 18.2525 8.66328 17.9853 7.55417 17.6167C6.44583 17.2472 5.49306 16.7662 4.69583 16.1735C3.89861 15.5808 3.5 14.8563 3.5 14V11.0833C3.5 11.9389 3.89861 12.6634 4.69583 13.2568C5.49306 13.8503 6.44583 14.3313 7.55417 14.7C8.6625 15.0694 9.81478 15.337 11.011 15.5027C12.2072 15.6683 13.2036 15.7508 14 15.75ZM14 21.5833C14.7972 21.5833 15.7939 21.5005 16.9902 21.3348C18.1864 21.1692 19.3383 20.902 20.4458 20.5333C21.5542 20.1639 22.5069 19.6828 23.3042 19.0902C24.1014 18.4975 24.5 17.773 24.5 16.9167V19.8333C24.5 20.6889 24.1014 21.4134 23.3042 22.0068C22.5069 22.6003 21.5542 23.0813 20.4458 23.45C19.3375 23.8194 18.1856 24.087 16.9902 24.2527C15.7947 24.4183 14.798 24.5008 14 24.5C13.2028 24.5 12.2064 24.4172 11.011 24.2515C9.81556 24.0858 8.66328 23.8187 7.55417 23.45C6.44583 23.0806 5.49306 22.5995 4.69583 22.0068C3.89861 21.4142 3.5 20.6897 3.5 19.8333V16.9167C3.5 17.7722 3.89861 18.4967 4.69583 19.0902C5.49306 19.6836 6.44583 20.1647 7.55417 20.5333C8.6625 20.9028 9.81478 21.1703 11.011 21.336C12.2072 21.5017 13.2036 21.5841 14 21.5833Z" fill="black"/>
</svg>
